<svg width="56" height="56" viewBox="0 0 56 56" fill="none" xmlns="http://www.w3.org/2000/svg">
<circle cx="28" cy="28" r="26.5" />
<path fill-rule="evenodd" clip-rule="evenodd" d="M24.25 14.875H35.5V28C35.5 28.1659 35.4561 28.3288 35.3726 28.4721C35.2891 28.6154 35.169 28.734 35.0247 28.8158C34.8804 28.8976 34.717 28.9396 34.5511 28.9376C34.3853 28.9356 34.2229 28.8896 34.0806 28.8044L29.875 26.2806L25.6694 28.8063C25.527 28.8916 25.3644 28.9376 25.1984 28.9395C25.0324 28.9414 24.8688 28.8992 24.7245 28.8172C24.5801 28.7352 24.4601 28.6164 24.3767 28.4728C24.2934 28.3292 24.2496 28.166 24.25 28V14.875Z" fill="white"/>
<path d="M18.625 13H37.375C38.3696 13 39.3234 13.3951 40.0266 14.0983C40.7299 14.8016 41.125 15.7554 41.125 16.75V39.25C41.125 40.2446 40.7299 41.1984 40.0266 41.9016C39.3234 42.6049 38.3696 43 37.375 43H18.625C17.6304 43 16.6766 42.6049 15.9733 41.9016C15.2701 41.1984 14.875 40.2446 14.875 39.25V37.375H16.75V39.25C16.75 39.7473 16.9475 40.2242 17.2992 40.5758C17.6508 40.9275 18.1277 41.125 18.625 41.125H37.375C37.8723 41.125 38.3492 40.9275 38.7008 40.5758C39.0525 40.2242 39.25 39.7473 39.25 39.25V16.75C39.25 16.2527 39.0525 15.7758 38.7008 15.4242C38.3492 15.0725 37.8723 14.875 37.375 14.875H18.625C18.1277 14.875 17.6508 15.0725 17.2992 15.4242C16.9475 15.7758 16.75 16.2527 16.75 16.75V18.625H14.875V16.75C14.875 15.7554 15.2701 14.8016 15.9733 14.0983C16.6766 13.3951 17.6304 13 18.625 13V13Z" fill="white"/>
<path d="M14.875 22.375V21.4375C14.875 21.1889 14.9738 20.9504 15.1496 20.7746C15.3254 20.5988 15.5639 20.5 15.8125 20.5C16.0611 20.5 16.2996 20.5988 16.4754 20.7746C16.6512 20.9504 16.75 21.1889 16.75 21.4375V22.375H17.6875C17.9361 22.375 18.1746 22.4738 18.3504 22.6496C18.5262 22.8254 18.625 23.0639 18.625 23.3125C18.625 23.5611 18.5262 23.7996 18.3504 23.9754C18.1746 24.1512 17.9361 24.25 17.6875 24.25H13.9375C13.6889 24.25 13.4504 24.1512 13.2746 23.9754C13.0988 23.7996 13 23.5611 13 23.3125C13 23.0639 13.0988 22.8254 13.2746 22.6496C13.4504 22.4738 13.6889 22.375 13.9375 22.375H14.875ZM14.875 28V27.0625C14.875 26.8139 14.9738 26.5754 15.1496 26.3996C15.3254 26.2238 15.5639 26.125 15.8125 26.125C16.0611 26.125 16.2996 26.2238 16.4754 26.3996C16.6512 26.5754 16.75 26.8139 16.75 27.0625V28H17.6875C17.9361 28 18.1746 28.0988 18.3504 28.2746C18.5262 28.4504 18.625 28.6889 18.625 28.9375C18.625 29.1861 18.5262 29.4246 18.3504 29.6004C18.1746 29.7762 17.9361 29.875 17.6875 29.875H13.9375C13.6889 29.875 13.4504 29.7762 13.2746 29.6004C13.0988 29.4246 13 29.1861 13 28.9375C13 28.6889 13.0988 28.4504 13.2746 28.2746C13.4504 28.0988 13.6889 28 13.9375 28H14.875ZM14.875 33.625V32.6875C14.875 32.4389 14.9738 32.2004 15.1496 32.0246C15.3254 31.8488 15.5639 31.75 15.8125 31.75C16.0611 31.75 16.2996 31.8488 16.4754 32.0246C16.6512 32.2004 16.75 32.4389 16.75 32.6875V33.625H17.6875C17.9361 33.625 18.1746 33.7238 18.3504 33.8996C18.5262 34.0754 18.625 34.3139 18.625 34.5625C18.625 34.8111 18.5262 35.0496 18.3504 35.2254C18.1746 35.4012 17.9361 35.5 17.6875 35.5H13.9375C13.6889 35.5 13.4504 35.4012 13.2746 35.2254C13.0988 35.0496 13 34.8111 13 34.5625C13 34.3139 13.0988 34.0754 13.2746 33.8996C13.4504 33.7238 13.6889 33.625 13.9375 33.625H14.875Z" fill="white"/>
<rect x="12.5" y="12.5" width="31" height="31" stroke="#1D1D1D"/>
</svg>
