<svg width="56" height="56" viewBox="0 0 56 56" fill="none" xmlns="http://www.w3.org/2000/svg">
<circle cx="28" cy="28" r="26.5" />
<g clip-path="url(#clip0_36_48)">
<path d="M41.625 20.9375C42.2052 20.9375 42.7616 21.168 43.1718 21.5782C43.582 21.9884 43.8125 22.5448 43.8125 23.125V34.0625C43.8125 34.6427 43.582 35.1991 43.1718 35.6093C42.7616 36.0195 42.2052 36.25 41.625 36.25H15.375C14.7948 36.25 14.2384 36.0195 13.8282 35.6093C13.418 35.1991 13.1875 34.6427 13.1875 34.0625V23.125C13.1875 22.5448 13.418 21.9884 13.8282 21.5782C14.2384 21.168 14.7948 20.9375 15.375 20.9375H41.625ZM15.375 18.75C14.2147 18.75 13.1019 19.2109 12.2814 20.0314C11.4609 20.8519 11 21.9647 11 23.125V34.0625C11 35.2228 11.4609 36.3356 12.2814 37.1561C13.1019 37.9766 14.2147 38.4375 15.375 38.4375H41.625C42.7853 38.4375 43.8981 37.9766 44.7186 37.1561C45.5391 36.3356 46 35.2228 46 34.0625V23.125C46 21.9647 45.5391 20.8519 44.7186 20.0314C43.8981 19.2109 42.7853 18.75 41.625 18.75H15.375Z" fill="white"/>
<path d="M39.4375 32.4219C39.4375 32.2768 39.4951 32.1377 39.5977 32.0352C39.7002 31.9326 39.8393 31.875 39.9844 31.875H41.0781C41.2232 31.875 41.3623 31.9326 41.4648 32.0352C41.5674 32.1377 41.625 32.2768 41.625 32.4219V33.5156C41.625 33.6607 41.5674 33.7998 41.4648 33.9023C41.3623 34.0049 41.2232 34.0625 41.0781 34.0625H39.9844C39.8393 34.0625 39.7002 34.0049 39.5977 33.9023C39.4951 33.7998 39.4375 33.6607 39.4375 33.5156V32.4219ZM39.4375 28.0469C39.4375 27.9018 39.4951 27.7627 39.5977 27.6602C39.7002 27.5576 39.8393 27.5 39.9844 27.5H41.0781C41.2232 27.5 41.3623 27.5576 41.4648 27.6602C41.5674 27.7627 41.625 27.9018 41.625 28.0469V29.1406C41.625 29.2857 41.5674 29.4248 41.4648 29.5273C41.3623 29.6299 41.2232 29.6875 41.0781 29.6875H39.9844C39.8393 29.6875 39.7002 29.6299 39.5977 29.5273C39.4951 29.4248 39.4375 29.2857 39.4375 29.1406V28.0469ZM28.5 28.0469C28.5 27.9018 28.5576 27.7627 28.6602 27.6602C28.7627 27.5576 28.9018 27.5 29.0469 27.5H30.1406C30.2857 27.5 30.4248 27.5576 30.5273 27.6602C30.6299 27.7627 30.6875 27.9018 30.6875 28.0469V29.1406C30.6875 29.2857 30.6299 29.4248 30.5273 29.5273C30.4248 29.6299 30.2857 29.6875 30.1406 29.6875H29.0469C28.9018 29.6875 28.7627 29.6299 28.6602 29.5273C28.5576 29.4248 28.5 29.2857 28.5 29.1406V28.0469ZM32.875 28.0469C32.875 27.9018 32.9326 27.7627 33.0352 27.6602C33.1377 27.5576 33.2768 27.5 33.4219 27.5H36.7031C36.8482 27.5 36.9873 27.5576 37.0898 27.6602C37.1924 27.7627 37.25 27.9018 37.25 28.0469V29.1406C37.25 29.2857 37.1924 29.4248 37.0898 29.5273C36.9873 29.6299 36.8482 29.6875 36.7031 29.6875H33.4219C33.2768 29.6875 33.1377 29.6299 33.0352 29.5273C32.9326 29.4248 32.875 29.2857 32.875 29.1406V28.0469ZM35.0625 32.4219C35.0625 32.2768 35.1201 32.1377 35.2227 32.0352C35.3252 31.9326 35.4643 31.875 35.6094 31.875H36.7031C36.8482 31.875 36.9873 31.9326 37.0898 32.0352C37.1924 32.1377 37.25 32.2768 37.25 32.4219V33.5156C37.25 33.6607 37.1924 33.7998 37.0898 33.9023C36.9873 34.0049 36.8482 34.0625 36.7031 34.0625H35.6094C35.4643 34.0625 35.3252 34.0049 35.2227 33.9023C35.1201 33.7998 35.0625 33.6607 35.0625 33.5156V32.4219ZM24.125 28.0469C24.125 27.9018 24.1826 27.7627 24.2852 27.6602C24.3877 27.5576 24.5268 27.5 24.6719 27.5H25.7656C25.9107 27.5 26.0498 27.5576 26.1523 27.6602C26.2549 27.7627 26.3125 27.9018 26.3125 28.0469V29.1406C26.3125 29.2857 26.2549 29.4248 26.1523 29.5273C26.0498 29.6299 25.9107 29.6875 25.7656 29.6875H24.6719C24.5268 29.6875 24.3877 29.6299 24.2852 29.5273C24.1826 29.4248 24.125 29.2857 24.125 29.1406V28.0469ZM19.75 28.0469C19.75 27.9018 19.8076 27.7627 19.9102 27.6602C20.0127 27.5576 20.1518 27.5 20.2969 27.5H21.3906C21.5357 27.5 21.6748 27.5576 21.7773 27.6602C21.8799 27.7627 21.9375 27.9018 21.9375 28.0469V29.1406C21.9375 29.2857 21.8799 29.4248 21.7773 29.5273C21.6748 29.6299 21.5357 29.6875 21.3906 29.6875H20.2969C20.1518 29.6875 20.0127 29.6299 19.9102 29.5273C19.8076 29.4248 19.75 29.2857 19.75 29.1406V28.0469ZM15.375 28.0469C15.375 27.9018 15.4326 27.7627 15.5352 27.6602C15.6377 27.5576 15.7768 27.5 15.9219 27.5H17.0156C17.1607 27.5 17.2998 27.5576 17.4023 27.6602C17.5049 27.7627 17.5625 27.9018 17.5625 28.0469V29.1406C17.5625 29.2857 17.5049 29.4248 17.4023 29.5273C17.2998 29.6299 17.1607 29.6875 17.0156 29.6875H15.9219C15.7768 29.6875 15.6377 29.6299 15.5352 29.5273C15.4326 29.4248 15.375 29.2857 15.375 29.1406V28.0469ZM39.4375 23.6719C39.4375 23.5268 39.4951 23.3877 39.5977 23.2852C39.7002 23.1826 39.8393 23.125 39.9844 23.125H41.0781C41.2232 23.125 41.3623 23.1826 41.4648 23.2852C41.5674 23.3877 41.625 23.5268 41.625 23.6719V24.7656C41.625 24.9107 41.5674 25.0498 41.4648 25.1523C41.3623 25.2549 41.2232 25.3125 41.0781 25.3125H39.9844C39.8393 25.3125 39.7002 25.2549 39.5977 25.1523C39.4951 25.0498 39.4375 24.9107 39.4375 24.7656V23.6719ZM35.0625 23.6719C35.0625 23.5268 35.1201 23.3877 35.2227 23.2852C35.3252 23.1826 35.4643 23.125 35.6094 23.125H36.7031C36.8482 23.125 36.9873 23.1826 37.0898 23.2852C37.1924 23.3877 37.25 23.5268 37.25 23.6719V24.7656C37.25 24.9107 37.1924 25.0498 37.0898 25.1523C36.9873 25.2549 36.8482 25.3125 36.7031 25.3125H35.6094C35.4643 25.3125 35.3252 25.2549 35.2227 25.1523C35.1201 25.0498 35.0625 24.9107 35.0625 24.7656V23.6719ZM30.6875 23.6719C30.6875 23.5268 30.7451 23.3877 30.8477 23.2852C30.9502 23.1826 31.0893 23.125 31.2344 23.125H32.3281C32.4732 23.125 32.6123 23.1826 32.7148 23.2852C32.8174 23.3877 32.875 23.5268 32.875 23.6719V24.7656C32.875 24.9107 32.8174 25.0498 32.7148 25.1523C32.6123 25.2549 32.4732 25.3125 32.3281 25.3125H31.2344C31.0893 25.3125 30.9502 25.2549 30.8477 25.1523C30.7451 25.0498 30.6875 24.9107 30.6875 24.7656V23.6719ZM26.3125 23.6719C26.3125 23.5268 26.3701 23.3877 26.4727 23.2852C26.5752 23.1826 26.7143 23.125 26.8594 23.125H27.9531C28.0982 23.125 28.2373 23.1826 28.3398 23.2852C28.4424 23.3877 28.5 23.5268 28.5 23.6719V24.7656C28.5 24.9107 28.4424 25.0498 28.3398 25.1523C28.2373 25.2549 28.0982 25.3125 27.9531 25.3125H26.8594C26.7143 25.3125 26.5752 25.2549 26.4727 25.1523C26.3701 25.0498 26.3125 24.9107 26.3125 24.7656V23.6719ZM21.9375 23.6719C21.9375 23.5268 21.9951 23.3877 22.0977 23.2852C22.2002 23.1826 22.3393 23.125 22.4844 23.125H23.5781C23.7232 23.125 23.8623 23.1826 23.9648 23.2852C24.0674 23.3877 24.125 23.5268 24.125 23.6719V24.7656C24.125 24.9107 24.0674 25.0498 23.9648 25.1523C23.8623 25.2549 23.7232 25.3125 23.5781 25.3125H22.4844C22.3393 25.3125 22.2002 25.2549 22.0977 25.1523C21.9951 25.0498 21.9375 24.9107 21.9375 24.7656V23.6719ZM15.375 23.6719C15.375 23.5268 15.4326 23.3877 15.5352 23.2852C15.6377 23.1826 15.7768 23.125 15.9219 23.125H19.2031C19.3482 23.125 19.4873 23.1826 19.5898 23.2852C19.6924 23.3877 19.75 23.5268 19.75 23.6719V24.7656C19.75 24.9107 19.6924 25.0498 19.5898 25.1523C19.4873 25.2549 19.3482 25.3125 19.2031 25.3125H15.9219C15.7768 25.3125 15.6377 25.2549 15.5352 25.1523C15.4326 25.0498 15.375 24.9107 15.375 24.7656V23.6719ZM15.375 32.4219C15.375 32.2768 15.4326 32.1377 15.5352 32.0352C15.6377 31.9326 15.7768 31.875 15.9219 31.875H17.0156C17.1607 31.875 17.2998 31.9326 17.4023 32.0352C17.5049 32.1377 17.5625 32.2768 17.5625 32.4219V33.5156C17.5625 33.6607 17.5049 33.7998 17.4023 33.9023C17.2998 34.0049 17.1607 34.0625 17.0156 34.0625H15.9219C15.7768 34.0625 15.6377 34.0049 15.5352 33.9023C15.4326 33.7998 15.375 33.6607 15.375 33.5156V32.4219ZM19.75 32.4219C19.75 32.2768 19.8076 32.1377 19.9102 32.0352C20.0127 31.9326 20.1518 31.875 20.2969 31.875H32.3281C32.4732 31.875 32.6123 31.9326 32.7148 32.0352C32.8174 32.1377 32.875 32.2768 32.875 32.4219V33.5156C32.875 33.6607 32.8174 33.7998 32.7148 33.9023C32.6123 34.0049 32.4732 34.0625 32.3281 34.0625H20.2969C20.1518 34.0625 20.0127 34.0049 19.9102 33.9023C19.8076 33.7998 19.75 33.6607 19.75 33.5156V32.4219Z" fill="white"/>
</g>
<defs>
<clipPath id="clip0_36_48">
<rect width="35" height="35" fill="white" transform="translate(11 10)"/>
</clipPath>
</defs>
</svg>
