<?xml version="1.0" encoding="UTF-8"?><svg id="a" xmlns="http://www.w3.org/2000/svg" viewBox="0 0 916.29 770"><defs><style>.d{fill:#7eb642;}.e{fill:#103254;}</style></defs><g><g id="b"><g><path class="d" d="M196.95,644.08c-40.95-41.35-57.1-85.45-31.11-163.42,9.45-27.96,22.45-57.1,39.38-86.63,28.35-49.62,66.94-100.02,114.2-146.88,46.07-45.29,95.3-82.3,144.13-109.47-29.53-16.93-65.37-36.62-93.72-45.68-40.95,22.45-81.12,51.59-117.35,87.42-37.8,37.41-68.52,78.36-91.75,120.89-15.75,28.75-27.96,57.49-36.62,86.63-31.9,105.54-18.11,209.5,48.44,277.23,64.58,65.37,176.42,74.82,279.2,47.65-24.81-8.66-48.44-18.11-72.85-31.9-77.97,24.42-141.37,5.51-181.93-35.83Z"/><path class="d" d="M444.25,58.91c30.32,8.27,60.64,20.48,90.18,36.23,84.27-29.93,139.01-6.3,181.93,37.41,42.92,43.32,51.98,87.03,21.66,170.12-9.45,25.2-21.66,51.59-37.02,77.97-28.35,48.44-66.16,97.66-112.62,143.34-47.65,47.25-96.08,89-146.49,116.56,25.99,15.36,62.61,33.87,87.82,43.32,44.89-22.84,88.21-53.95,127.98-92.93,38.2-37.8,68.91-79.15,92.54-121.68,14.18-25.6,25.2-51.98,33.47-77.97,35.05-108.29,22.05-215.8-46.07-285.1-69.7-70.49-181.14-84.27-293.37-47.25Z"/></g></g><g id="c"><g><path class="e" d="M204.04,127.03c41.35-40.95,85.45-57.1,163.42-31.11,27.96,9.45,57.1,22.45,86.63,39.38,49.62,28.35,100.02,66.94,146.88,114.2,45.29,46.07,71.28,85.06,98.45,133.89,16.93-29.53,35.05-68.13,44.1-96.48-22.45-40.95-38.59-68.13-74.43-104.35-37.41-37.8-78.36-68.52-120.89-91.75-28.75-15.75-57.49-27.96-86.63-36.62-105.54-31.9-209.5-18.11-277.23,48.44-65.37,64.58-81.51,164.6-54.34,267.38,8.66-24.81,20.08-50.01,33.87-74.43-25.2-77.58-1.18-127.98,40.17-168.54Z"/><path class="e" d="M788.42,373.55c-8.27,30.32-21.66,61.83-35.44,90.97,29.93,84.27,6.3,139.01-37.41,181.93-43.32,42.92-87.03,51.98-170.12,21.66-25.2-9.45-51.59-21.66-77.97-37.02-48.44-28.35-97.66-66.16-143.34-112.62-47.25-47.65-83.48-86.63-111.05-137.04-16.54,25.99-34.65,64.19-43.32,88.6,22.84,44.89,48.44,77.58,87.42,117.35,37.8,38.2,79.15,68.91,121.68,92.54,25.6,14.18,51.98,25.2,77.97,33.47,108.29,35.05,215.8,22.05,285.1-46.07,70.49-69.31,83.48-181.54,46.47-293.77Z"/></g></g></g><path class="e" d="M412.78,468.8v-8.18c18.4-2.33,21.03-4.67,17.24-16.06-3.8-11.4-9.64-27.17-16.07-44.99h-62.22c-4.67,13.14-9.05,25.42-12.85,37.68-6.43,18.4-3.8,21.32,18.11,23.37v8.18h-63.39v-8.18c18.4-2.63,22.49-4.38,32.72-30.09l60.47-153.36,9.06-2.63c18.11,50.24,37.68,105.74,56.38,156.57,9.35,25.13,13.14,27.76,32.13,29.51v8.18h-71.57Zm-28.63-156.28h-.58c-9.35,25.12-18.7,50.53-27.46,74.49h53.75l-25.71-74.49Z"/><path class="d" d="M559.85,274.8c21.42,0,28.34,3.78,40.31,12.6,11.34,8.82,19.53,22.68,19.53,42.2,0,38.42-14.49,63.62-43.46,67.4-4.41,0-15.12,1.26-18.27,.63h-21.42l-.63,34.01c0,25.2,2.52,27.08,29.6,28.97v8.19h-81.25v-8.19c23.94-1.89,26.45-4.41,26.45-28.97v-119.68c0-26.45-2.52-27.71-24.57-28.97v-8.19h73.7Zm-23.94,110.23c4.41,.63,12.6,0,22.68,0,19.53,0,42.83-16.38,42.83-54.17,0-32.12-20.79-45.98-45.35-45.98-8.19,0-14.49,1.26-17.01,3.78-2.52,1.89-3.15,5.67-3.15,13.86v82.51Z"/></svg>